<svg width="640" height="320" viewBox="0 0 640 320" fill="none" xmlns="http://www.w3.org/2000/svg">
<rect width="640" height="320" fill="#19171F"/>
<rect width="192" height="192" transform="translate(47 64)" fill="#19171F"/>
<path d="M146.622 92.0718L199.244 122.453C201.719 123.882 203.244 126.523 203.244 129.381V190.144C203.244 193.002 201.719 195.643 199.244 197.072L146.622 227.453C144.147 228.882 141.097 228.882 138.622 227.453L86 197.072C83.5248 195.643 82 193.002 82 190.144V129.381C82 126.523 83.5248 123.882 86 122.453L112.708 107.033L132.617 126.941C131.801 128.891 131.584 131.04 131.992 133.114C132.401 135.188 133.416 137.093 134.91 138.589C135.907 139.588 137.094 140.377 138.401 140.911V179.072C137.094 179.608 135.908 180.4 134.91 181.4C133.92 182.389 133.136 183.563 132.6 184.855C132.065 186.148 131.789 187.533 131.789 188.932C131.789 190.331 132.065 191.716 132.6 193.008C133.136 194.3 133.92 195.474 134.91 196.463C135.899 197.453 137.073 198.237 138.365 198.772C139.657 199.308 141.042 199.583 142.441 199.583C143.84 199.583 145.225 199.308 146.517 198.772C147.809 198.237 148.983 197.453 149.972 196.463C151.168 195.267 152.062 193.803 152.58 192.193C153.098 190.582 153.225 188.871 152.95 187.202C152.675 185.533 152.006 183.953 150.999 182.594C149.992 181.234 148.675 180.134 147.158 179.385V141.572L161.529 155.938C160.728 157.883 160.52 160.021 160.933 162.083C161.345 164.145 162.359 166.039 163.847 167.525C165.845 169.523 168.555 170.645 171.381 170.645C174.206 170.645 176.916 169.523 178.915 167.525C179.904 166.537 180.689 165.362 181.224 164.07C181.759 162.778 182.035 161.393 182.035 159.994C182.035 158.596 181.759 157.211 181.224 155.919C180.689 154.626 179.904 153.452 178.915 152.463C177.503 151.05 175.721 150.062 173.774 149.615C171.827 149.168 169.793 149.278 167.905 149.934L152.501 134.529C153.154 132.641 153.262 130.608 152.815 128.662C152.367 126.716 151.382 124.934 149.97 123.521C148.567 122.118 146.798 121.136 144.866 120.686C142.933 120.236 140.913 120.335 139.033 120.974L120.56 102.5L138.622 92.0718C141.097 90.6427 144.147 90.6427 146.622 92.0718Z" fill="#474056"/>
<path d="M258.6 194.288L243.912 154.352C243.528 153.2 242.984 152.336 242.28 151.76C241.64 151.12 240.776 150.608 239.688 150.224L238.056 149.744V147.92H261V149.744L259.464 150.128C257.032 150.768 256.232 152.304 257.064 154.736L265.8 180.848L273.864 159.44L272.424 155.12C271.976 153.776 271.496 152.72 270.984 151.952C270.536 151.184 269.864 150.64 268.968 150.32L267.336 149.744V147.92H287.112V149.744L285.768 150.224C284.744 150.608 284.104 151.152 283.848 151.856C283.656 152.496 283.784 153.456 284.232 154.736L292.776 180.272L301.416 154.832C302.184 152.336 301.608 150.832 299.688 150.32L297.768 149.744V147.92H310.632V149.744L308.52 150.32C307.432 150.64 306.6 151.12 306.024 151.76C305.448 152.4 304.968 153.296 304.584 154.448L290.76 194.288H285.768L275.304 163.664L263.976 194.288H258.6ZM325.686 195.344C322.038 195.344 318.934 194.32 316.374 192.272C313.878 190.16 312.63 187.152 312.63 183.248C312.63 180.176 314.102 177.36 317.046 174.8C320.054 172.176 324.758 170.256 331.158 169.04C332.246 168.784 333.494 168.56 334.902 168.368C336.374 168.112 337.814 167.856 339.222 167.6V160.784C339.222 156.432 338.678 153.424 337.59 151.76C336.502 150.096 334.774 149.264 332.406 149.264H332.118C330.646 149.264 329.462 149.744 328.566 150.704C327.734 151.6 327.19 153.104 326.934 155.216L326.646 156.464C326.454 159.024 325.782 160.912 324.63 162.128C323.478 163.28 322.038 163.856 320.31 163.856C318.71 163.856 317.366 163.376 316.278 162.416C315.254 161.392 314.742 160.08 314.742 158.48C314.742 155.856 315.638 153.648 317.43 151.856C319.222 150.064 321.59 148.72 324.534 147.824C327.542 146.928 330.774 146.48 334.23 146.48C339.926 146.48 344.278 147.856 347.286 150.608C350.294 153.36 351.798 157.84 351.798 164.048V185.456C351.798 188.208 353.11 189.584 355.734 189.584H357.942L358.902 190.64C357.75 192.112 356.47 193.232 355.062 194C353.654 194.832 351.734 195.248 349.302 195.248C346.55 195.248 344.342 194.608 342.678 193.328C341.078 191.984 340.022 190.224 339.51 188.048C337.462 190.224 335.446 191.984 333.462 193.328C331.478 194.672 328.886 195.344 325.686 195.344ZM331.254 189.2C332.534 189.2 333.75 188.912 334.902 188.336C336.054 187.76 337.494 186.8 339.222 185.456V170.096C337.558 170.352 335.862 170.672 334.134 171.056C331.382 171.696 329.142 172.88 327.414 174.608C325.75 176.336 324.918 178.672 324.918 181.616C324.918 184.176 325.494 186.096 326.646 187.376C327.862 188.592 329.398 189.2 331.254 189.2ZM360.797 194V192.176L362.237 191.696C363.517 191.376 364.381 190.832 364.829 190.064C365.341 189.296 365.597 188.272 365.597 186.992V158.864C365.533 157.456 365.277 156.4 364.829 155.696C364.381 154.928 363.517 154.416 362.237 154.16L360.797 153.776V152.048L376.445 146.48L377.597 147.536L378.461 155.984V156.656C379.421 154.864 380.637 153.2 382.109 151.664C383.581 150.128 385.181 148.88 386.909 147.92C388.637 146.96 390.365 146.48 392.093 146.48C394.525 146.48 396.349 147.12 397.565 148.4C398.781 149.68 399.389 151.312 399.389 153.296C399.389 155.472 398.781 157.136 397.565 158.288C396.349 159.376 394.877 159.92 393.149 159.92C390.589 159.92 388.381 158.768 386.525 156.464L386.333 156.272C385.693 155.504 384.957 155.088 384.125 155.024C383.357 154.896 382.589 155.28 381.821 156.176C381.181 156.816 380.573 157.584 379.997 158.48C379.485 159.312 379.005 160.304 378.557 161.456V186.608C378.557 187.824 378.813 188.848 379.325 189.68C379.837 190.448 380.701 190.992 381.917 191.312L384.797 192.176V194H360.797ZM421.27 195.344C417.494 195.344 414.102 194.512 411.094 192.848C408.086 191.12 405.718 188.496 403.99 184.976C402.326 181.392 401.494 176.848 401.494 171.344C401.494 165.84 402.454 161.264 404.374 157.616C406.294 153.904 408.854 151.12 412.054 149.264C415.254 147.408 418.774 146.48 422.614 146.48C424.918 146.48 427.126 146.768 429.238 147.344C431.35 147.856 433.206 148.656 434.806 149.744V137.264C434.806 135.92 434.582 134.96 434.134 134.384C433.75 133.744 432.918 133.264 431.638 132.944L429.718 132.56V130.736L446.422 126.608L447.67 127.472L447.286 141.008V187.184C447.286 188.4 447.51 189.424 447.958 190.256C448.406 191.024 449.206 191.568 450.358 191.888L451.414 192.176V194L435.478 195.056L434.614 191.024C432.886 192.368 430.902 193.424 428.662 194.192C426.422 194.96 423.958 195.344 421.27 195.344ZM426.55 190.928C429.302 190.928 431.894 190.032 434.326 188.24V152.528C431.958 151.056 429.398 150.32 426.646 150.32C423.51 150.32 420.822 151.984 418.582 155.312C416.342 158.576 415.222 163.856 415.222 171.152C415.222 178.448 416.278 183.568 418.39 186.512C420.502 189.456 423.222 190.928 426.55 190.928ZM479.766 146.48C483.798 146.48 487.254 147.312 490.134 148.976C493.014 150.64 495.222 152.944 496.758 155.888C498.358 158.768 499.158 162.096 499.158 165.872C499.158 166.704 499.126 167.504 499.062 168.272C498.998 168.976 498.87 169.648 498.678 170.288H469.782C469.846 176.88 471.062 181.616 473.43 184.496C475.862 187.376 479.382 188.816 483.99 188.816C487.19 188.816 489.782 188.304 491.766 187.28C493.75 186.192 495.574 184.688 497.238 182.768L498.774 184.208C496.854 187.728 494.23 190.48 490.902 192.464C487.638 194.384 483.734 195.344 479.19 195.344C474.646 195.344 470.646 194.384 467.19 192.464C463.734 190.544 461.014 187.792 459.03 184.208C457.11 180.56 456.15 176.208 456.15 171.152C456.15 165.904 457.27 161.456 459.51 157.808C461.814 154.16 464.758 151.376 468.342 149.456C471.99 147.472 475.798 146.48 479.766 146.48ZM479.286 149.264C477.43 149.264 475.798 149.808 474.39 150.896C473.046 151.92 471.958 153.776 471.126 156.464C470.358 159.088 469.91 162.8 469.782 167.6H486.966C487.67 161.136 487.414 156.464 486.198 153.584C484.982 150.704 482.678 149.264 479.286 149.264ZM504.047 194V192.176L505.583 191.792C507.695 191.152 508.751 189.584 508.751 187.088V158.768C508.687 157.424 508.463 156.4 508.079 155.696C507.695 154.928 506.863 154.416 505.583 154.16L504.047 153.776V152.048L519.599 146.48L520.751 147.536L521.423 153.488C523.727 151.44 526.287 149.776 529.103 148.496C531.983 147.152 534.799 146.48 537.551 146.48C541.775 146.48 545.007 147.632 547.247 149.936C549.551 152.24 550.703 155.76 550.703 160.496V187.184C550.703 189.68 551.855 191.248 554.159 191.888L555.215 192.176V194H533.135V192.176L534.575 191.792C536.687 191.088 537.743 189.52 537.743 187.088V158.576C537.743 156.336 537.263 154.704 536.303 153.68C535.343 152.656 533.743 152.144 531.503 152.144C528.367 152.144 525.103 153.52 521.711 156.272V187.184C521.711 189.68 522.831 191.248 525.071 191.888L526.031 192.176V194H504.047Z" fill="#474056"/>
</svg>
