<svg width="192" height="192" viewBox="0 0 192 192" fill="none" xmlns="http://www.w3.org/2000/svg">
<rect width="192" height="192" fill="#19171F"/>
<path d="M99.6218 28.0718L152.244 58.453C154.719 59.8821 156.244 62.5231 156.244 65.3812V126.144C156.244 129.002 154.719 131.643 152.244 133.072L99.6218 163.453C97.1466 164.882 94.097 164.882 91.6218 163.453L39 133.072C36.5248 131.643 35 129.002 35 126.144V65.3812C35 62.5231 36.5248 59.8821 39 58.453L65.7082 43.033L85.6165 62.9412C84.8012 64.8914 84.584 67.0398 84.9923 69.1137C85.4006 71.1876 86.4161 73.0934 87.9098 74.589C88.9072 75.5879 90.0943 76.3774 91.4012 76.911V115.072C90.0944 115.608 88.9075 116.4 87.9098 117.4C86.9205 118.389 86.1356 119.563 85.6002 120.855C85.0647 122.148 84.7892 123.533 84.7892 124.932C84.7892 126.331 85.0647 127.716 85.6002 129.008C86.1356 130.3 86.9205 131.474 87.9098 132.463C88.8987 133.453 90.0728 134.237 91.365 134.772C92.6572 135.308 94.0422 135.583 95.4409 135.583C96.8396 135.583 98.2246 135.308 99.5168 134.772C100.809 134.237 101.983 133.453 102.972 132.463C104.168 131.267 105.062 129.803 105.58 128.193C106.098 126.582 106.225 124.871 105.95 123.202C105.675 121.533 105.006 119.953 103.999 118.594C102.992 117.234 101.675 116.134 100.158 115.385V77.572L114.529 91.9382C113.728 93.8825 113.52 96.0207 113.933 98.0828C114.345 100.145 115.359 102.039 116.847 103.525C118.845 105.523 121.555 106.645 124.381 106.645C127.206 106.645 129.916 105.523 131.915 103.525C132.904 102.537 133.689 101.362 134.224 100.07C134.759 98.7781 135.035 97.3931 135.035 95.9945C135.035 94.5958 134.759 93.2108 134.224 91.9187C133.689 90.6265 132.904 89.4524 131.915 88.4635C130.503 87.0497 128.721 86.0625 126.774 85.6151C124.827 85.1678 122.793 85.2784 120.905 85.9342L105.501 70.5289C106.154 68.6413 106.262 66.6083 105.815 64.662C105.367 62.7156 104.382 60.9342 102.97 59.521C101.567 58.1182 99.7984 57.1361 97.8656 56.686C95.9328 56.2358 93.9126 56.3354 92.0335 56.9736L73.5597 38.5L91.6218 28.0718C94.097 26.6427 97.1466 26.6427 99.6218 28.0718Z" fill="#474056"/>
</svg>
